<svg width="24" height="24" viewBox="0 0 24 24" fill="none" xmlns="http://www.w3.org/2000/svg">
<path d="M24 13.667C23.1806 19.5053 18.1208 24 12 24C5.87918 24 0.819375 19.5053 0 13.667H5.48047C6.22787 16.5422 8.86343 18.667 12 18.667C15.1366 18.667 17.7721 16.5422 18.5195 13.667H24ZM12 0C18.1208 0 23.1806 4.49468 24 10.333H18.5195C17.7721 7.45779 15.1366 5.33301 12 5.33301C8.86343 5.33301 6.22787 7.45779 5.48047 10.333H0C0.819375 4.49468 5.87918 1.89667e-07 12 0Z" fill="#DC0A2D"/>
<ellipse cx="12.1683" cy="12.1667" rx="4.2073" ry="4.16667" fill="#DC0A2D"/>
</svg>
